<svg version="1.1" id="Layer_1" xmlns="http://www.w3.org/2000/svg" xmlns:xlink="http://www.w3.org/1999/xlink" x="0px" y="0px"
	 viewBox="0 0 32 32" style="enable-background:new 0 0 32 32;" xml:space="preserve">
<style type="text/css">
	.White{fill:#FFFFFF;}
	.Blue{fill:#1177D7;}
</style>
<path class="Blue" d="M27.4,18.4c0,0.1,0,0.2,0,0.3c0.5,1,0.7,2.1,0.6,3.3c-0.1,1.4-0.6,2.6-1.6,3.7c-1,1.1-2.2,1.9-3.7,2.2
	c-1.5,0.3-2.9,0.1-4.2-0.5c-0.2-0.1-0.4-0.1-0.6-0.1c-2.5,0.4-4.9,0-7.1-1.2c-3.4-1.8-5.4-4.6-6-8.4c-0.2-1.2-0.2-2.4,0.1-3.6
	c0-0.2,0-0.3-0.1-0.5C3.3,10.9,4,7.2,6.6,5.4c2.4-1.7,4.9-1.8,7.4-0.5C14.1,5,14.3,5,14.5,5c3.9-0.5,7.3,0.7,10,3.5
	c1.9,2,2.9,4.4,3,7.2c0,0.2,0,0.3,0,0.5C27.6,16.1,27.4,17.6,27.4,18.4z M15.9,8.2c-0.3,0-0.6,0-0.8,0c-1.3,0.1-2.5,0.4-3.6,1.1
	c-2.3,1.4-2.5,4.9-0.1,6.4c0.8,0.5,1.6,0.8,2.5,1c1.2,0.3,2.3,0.6,3.5,0.9c0.4,0.1,0.8,0.3,1.2,0.6c0.7,0.5,0.8,1.6,0.2,2.2
	c-0.3,0.3-0.6,0.5-1,0.7c-0.7,0.3-1.6,0.3-2.4,0.3c-1-0.1-1.8-0.5-2.3-1.4c-0.2-0.3-0.3-0.6-0.5-0.9c-0.1-0.2-0.2-0.4-0.4-0.6
	c-0.7-0.9-2.2-0.7-2.8,0.3c-0.3,0.6-0.2,1.2,0.1,1.7c0.5,1.2,1.4,2.1,2.5,2.7c1.2,0.6,2.5,0.8,3.9,0.8c1.5,0,2.9-0.2,4.2-0.9
	c1.8-0.9,2.7-2.5,2.6-4.4c-0.1-1-0.4-1.8-1.2-2.5c-0.6-0.5-1.3-0.9-2.1-1.2c-1.2-0.4-2.5-0.7-3.8-1c-0.7-0.2-1.4-0.3-2-0.7
	c-0.7-0.5-0.8-1.3-0.2-1.8c0.2-0.2,0.5-0.4,0.8-0.5c0.7-0.3,1.4-0.3,2.2-0.2c0.8,0.1,1.4,0.5,1.9,1.1c0.2,0.3,0.4,0.7,0.6,1
	c0.5,0.7,1.4,0.9,2.2,0.5c0.7-0.4,1-1.2,0.7-2.1c-0.3-1-1-1.6-1.9-2.1C18.8,8.4,17.4,8.2,15.9,8.2z"/>
<path class="White" d="M15.9,8.2c1.5,0,2.9,0.2,4.2,0.9c0.9,0.5,1.5,1.2,1.9,2.1c0.3,0.9,0,1.7-0.7,2.1c-0.8,0.4-1.7,0.2-2.2-0.5
	c-0.2-0.3-0.4-0.7-0.6-1c-0.4-0.7-1.1-1.1-1.9-1.1c-0.7-0.1-1.5-0.1-2.2,0.2c-0.3,0.1-0.6,0.3-0.8,0.5c-0.6,0.5-0.5,1.4,0.2,1.8
	c0.6,0.4,1.3,0.6,2,0.7c1.3,0.3,2.5,0.6,3.8,1c0.8,0.2,1.5,0.6,2.1,1.2c0.7,0.7,1.1,1.5,1.2,2.5c0.1,2-0.8,3.6-2.6,4.4
	c-1.3,0.7-2.8,0.9-4.2,0.9c-1.3,0-2.6-0.2-3.9-0.8c-1.2-0.6-2.1-1.5-2.5-2.7c-0.2-0.6-0.3-1.1-0.1-1.7c0.5-1,2-1.2,2.8-0.3
	c0.1,0.2,0.3,0.4,0.4,0.6c0.2,0.3,0.3,0.6,0.5,0.9c0.5,0.9,1.3,1.3,2.3,1.4c0.8,0.1,1.6,0.1,2.4-0.3c0.4-0.2,0.7-0.4,1-0.7
	c0.6-0.6,0.6-1.7-0.2-2.2c-0.3-0.3-0.8-0.5-1.2-0.6c-1.2-0.3-2.3-0.6-3.5-0.9c-0.9-0.2-1.7-0.5-2.5-1c-2.4-1.5-2.2-5,0.1-6.4
	c1.1-0.7,2.3-1,3.6-1.1C15.4,8.2,15.6,8.2,15.9,8.2z"/>
</svg>
